<?xml version="1.0" encoding="UTF-8"?>
<svg xmlns="http://www.w3.org/2000/svg" version="1.1" xmlns:xlink="http://www.w3.org/1999/xlink" viewBox="0 0 100 100">
  <defs>
    <style>
      .cls-1 {
        fill: url(#_Áåçûìÿííûé_ãðàäèåíò_214);
      }

      .cls-2 {
        fill: #ffa1fb;
      }

      .cls-3 {
        fill: url(#radial-gradient);
      }

      .cls-3, .cls-4, .cls-5 {
        mix-blend-mode: screen;
      }

      .cls-6 {
        fill: url(#_Áåçûìÿííûé_ãðàäèåíò_245);
      }

      .cls-7 {
        isolation: isolate;
      }

      .cls-8, .cls-4 {
        fill: #351d35;
      }

      .cls-9 {
        fill: url(#_Áåçûìÿííûé_ãðàäèåíò_240);
      }

      .cls-10 {
        fill: url(#_Áåçûìÿííûé_ãðàäèåíò_228);
      }

      .cls-11 {
        fill: #d068e8;
      }

      .cls-12 {
        fill: #3b223a;
      }

      .cls-13 {
        fill: #5c3b53;
      }

      .cls-14 {
        fill: #962dcc;
      }

      .cls-15 {
        fill: url(#_Áåçûìÿííûé_ãðàäèåíò_239-2);
        opacity: .5;
      }

      .cls-16 {
        fill: url(#_Áåçûìÿííûé_ãðàäèåíò_239);
      }

      .cls-17 {
        fill: #bd46f2;
      }

      .cls-18 {
        fill: #2a182a;
      }

      .cls-19 {
        fill: url(#_Áåçûìÿííûé_ãðàäèåíò_291);
      }

      .cls-5 {
        fill: url(#_Áåçûìÿííûé_ãðàäèåíò_404);
      }

      .cls-20 {
        fill: #dd3131;
      }
    </style>
    <linearGradient id="_Áåçûìÿííûé_ãðàäèåíò_245" data-name="Áåçûìÿííûé ãðàäèåíò 245" x1="40.07" y1="83.39" x2="45.52" y2="83.39" gradientUnits="userSpaceOnUse">
      <stop offset="0" stop-color="#ed9ad5"/>
      <stop offset=".26" stop-color="#efa1d2"/>
      <stop offset=".63" stop-color="#f5b4cc"/>
      <stop offset="1" stop-color="#fecfc4"/>
    </linearGradient>
    <linearGradient id="_Áåçûìÿííûé_ãðàäèåíò_214" data-name="Áåçûìÿííûé ãðàäèåíò 214" x1="38.17" y1="87.23" x2="38.39" y2="87.6" gradientUnits="userSpaceOnUse">
      <stop offset="0" stop-color="#40243f"/>
      <stop offset=".19" stop-color="#3d223c"/>
      <stop offset="1" stop-color="#351d35"/>
    </linearGradient>
    <linearGradient id="_Áåçûìÿííûé_ãðàäèåíò_240" data-name="Áåçûìÿííûé ãðàäèåíò 240" x1="38.83" y1="55.66" x2="49.42" y2="55.66" gradientUnits="userSpaceOnUse">
      <stop offset="0" stop-color="#ed9ad5"/>
      <stop offset=".59" stop-color="#f7bcca"/>
      <stop offset="1" stop-color="#fecfc4"/>
    </linearGradient>
    <linearGradient id="_Áåçûìÿííûé_ãðàäèåíò_228" data-name="Áåçûìÿííûé ãðàäèåíò 228" x1="38.83" y1="30.78" x2="49.39" y2="30.78" gradientUnits="userSpaceOnUse">
      <stop offset="0" stop-color="#962dcc"/>
      <stop offset=".24" stop-color="#9d34cf"/>
      <stop offset=".59" stop-color="#b048d8"/>
      <stop offset="1" stop-color="#d068e8"/>
    </linearGradient>
    <linearGradient id="_Áåçûìÿííûé_ãðàäèåíò_239" data-name="Áåçûìÿííûé ãðàäèåíò 239" x1="44.28" y1="33.59" x2="46.93" y2="26.3" gradientUnits="userSpaceOnUse">
      <stop offset="0" stop-color="#c55de3"/>
      <stop offset=".13" stop-color="#cf6ae3"/>
      <stop offset=".49" stop-color="#e98ae4"/>
      <stop offset=".79" stop-color="#f99ee4"/>
      <stop offset="1" stop-color="#ffa6e5"/>
    </linearGradient>
    <linearGradient id="_Áåçûìÿííûé_ãðàäèåíò_239-2" data-name="Áåçûìÿííûé ãðàäèåíò 239" x1="138.87" y1="-.06" x2="141.19" y2="-6.46" gradientTransform="translate(98.25 1.57) rotate(151.9) scale(.47 -.7) skewX(53.14)" xlink:href="#_Áåçûìÿííûé_ãðàäèåíò_239"/>
    <linearGradient id="_Áåçûìÿííûé_ãðàäèåíò_291" data-name="Áåçûìÿííûé ãðàäèåíò 291" x1="38.84" y1="49.91" x2="49.4" y2="49.91" gradientUnits="userSpaceOnUse">
      <stop offset="0" stop-color="#cd76b4"/>
      <stop offset="1" stop-color="#e596cf"/>
    </linearGradient>
    <radialGradient id="_Áåçûìÿííûé_ãðàäèåíò_404" data-name="Áåçûìÿííûé ãðàäèåíò 404" cx="45.75" cy="26.27" fx="45.75" fy="26.27" r="25.41" gradientUnits="userSpaceOnUse">
      <stop offset="0" stop-color="#e53dff"/>
      <stop offset="0" stop-color="#dc3af5"/>
      <stop offset=".05" stop-color="#b32fc7"/>
      <stop offset=".09" stop-color="#8c259c"/>
      <stop offset=".14" stop-color="#6a1c77"/>
      <stop offset=".2" stop-color="#4d1456"/>
      <stop offset=".25" stop-color="#350e3b"/>
      <stop offset=".32" stop-color="#210825"/>
      <stop offset=".4" stop-color="#120414"/>
      <stop offset=".49" stop-color="#070208"/>
      <stop offset=".63" stop-color="#010001"/>
      <stop offset="1" stop-color="#000"/>
    </radialGradient>
    <radialGradient id="radial-gradient" cx="51.87" cy="71.34" fx="51.87" fy="71.34" r="27.8" gradientTransform="translate(65.64 -15.78) rotate(45)" gradientUnits="userSpaceOnUse">
      <stop offset="0" stop-color="#e53dff"/>
      <stop offset="0" stop-color="#dc3af5"/>
      <stop offset=".05" stop-color="#b32fc7"/>
      <stop offset=".09" stop-color="#8c259c"/>
      <stop offset=".14" stop-color="#6a1c77"/>
      <stop offset=".2" stop-color="#4d1456"/>
      <stop offset=".25" stop-color="#350e3b"/>
      <stop offset=".32" stop-color="#210825"/>
      <stop offset=".4" stop-color="#120414"/>
      <stop offset=".49" stop-color="#070208"/>
      <stop offset=".63" stop-color="#010001"/>
      <stop offset="1" stop-color="#000"/>
    </radialGradient>
  </defs>
  <!-- Generator: Adobe Illustrator 28.7.1, SVG Export Plug-In . SVG Version: 1.2.0 Build 142)  -->
  <g class="cls-7">
    <g id="Layer_1">
      <g id="_x31_3">
        <g>
          <g class="cls-7">
            <path class="cls-6" d="M25.07,76.04v3.71c-.01.46.29.93.91,1.28l15.96,9.21c1.22.7,3.19.7,4.4,0l15.96-9.28c.6-.35.9-.81.9-1.26v-3.71s-38.13.05-38.13.05Z"/>
            <path class="cls-12" d="M62.29,74.71l-15.96-9.21c-1.22-.7-3.19-.7-4.4,0l-15.96,9.28c-1.21.7-1.21,1.85.01,2.55l15.96,9.21c1.22.7,3.19.7,4.4,0l15.96-9.28c1.21-.7,1.2-1.84-.01-2.55Z"/>
          </g>
          <g>
            <g class="cls-7">
              <path class="cls-1" d="M39.49,86.6s-.04-.07-.07-.1c-.02-.03-.05-.05-.07-.06l-1.89-1.09s-.09-.03-.12-.01l-1.44.84c.47.97,1.16,1.81,2.13,2.48l1.44-.84s.05-.06.05-.11v-.97s0-.09-.03-.13Z"/>
              <path class="cls-18" d="M37.91,87.27l-1.89-1.09c-.1-.06-.17,0-.17.1v.97c0,.11.07.24.17.29l1.89,1.09c.09.05.17.01.17-.1v-.97c0-.11-.07-.24-.17-.3Z"/>
            </g>
            <path class="cls-8" d="M71.89,92.93l-10.47-6.05c-.56-.33-1.27-.33-1.83,0l-14.96,8.64c-.36.21-.8.21-1.16,0l-8.45-4.88s-.05-.05-.05-.08v-1.11c0-.12.06-.22.16-.28l1.97-1.14c.47-.27-.08-1.25-.56-.97l-1.97,1.14c-.45.26-.72.74-.72,1.25v1.17c0,.4.21.77.56.97l8.5,4.91c.35.2.75.3,1.14.3s.79-.1,1.14-.3l14.97-8.64c.22-.13.49-.13.71,0l10.47,6.05c.27.15.61.06.77-.21.16-.27.06-.61-.21-.77Z"/>
            <path class="cls-4" d="M35.39,88.29c.22-.13.97-.56,1.25-.72.07-.04.36-.15.22-.28-.09-.08-.19,0-.27.05-.14.08-1.35.78-1.5.87-.11.07-.35.18-.28.28.08.12.39-.08.58-.2Z"/>
            <path class="cls-4" d="M71.65,93.03l-10.47-6.05c-.43-.25-.96-.25-1.38,0l-14.92,8.57c-.63.36-1.01.27-1.46.07-2.3-1.05-7.79-4.49-8.52-4.84-.06-.03-.23.04-.22.11,0,.04,7.71,4.56,8.51,4.95.64.32,1.26.26,1.76-.03l14.97-8.64c.36-.21.8-.21,1.16,0l10.47,6.05s.04.01.06.01c.02,0,.07,0,.1-.06.03-.05.01-.12-.04-.15Z"/>
          </g>
        </g>
        <g>
          <path class="cls-18" d="M48.74,74.35l6.26-3.61-1.75-1.01-6.16,3.56c-1.8-.73-4.2-.76-6.04-.08l-6.03-3.48-1.75,1.01,6.06,3.5c-1.09,1.05-1.02,2.39.22,3.4l-6.28,3.63,1.75,1.01,6.4-3.69c1.67.52,3.69.5,5.33-.06l6.51,3.76,1.75-1.01-6.46-3.73c1.07-.96,1.14-2.19.21-3.18Z"/>
          <g>
            <g>
              <polygon class="cls-11" points="51.08 69.89 50.1 69.32 50.84 71.54 51.82 72.1 51.08 69.89"/>
              <polygon class="cls-13" points="47.79 58.74 46.82 58.17 46.82 71.22 47.8 71.78 47.79 58.74"/>
              <polygon class="cls-11" points="54.61 70.49 52.54 62.98 47.79 58.74 47.8 71.78 51.08 69.89 51.82 72.1 54.61 70.49"/>
            </g>
            <g>
              <polygon class="cls-11" points="37.19 69.89 38.17 69.32 37.42 71.54 36.45 72.1 37.19 69.89"/>
              <polygon class="cls-13" points="40.47 58.74 41.45 58.17 41.45 71.22 40.47 71.78 40.47 58.74"/>
              <polygon class="cls-14" points="33.66 70.49 35.73 62.98 40.47 58.74 40.47 71.78 37.19 69.89 36.45 72.1 33.66 70.49"/>
            </g>
            <path class="cls-8" d="M39.32,74.6l1.05,1.37c.19.25.45.48.8.69,1.58.95,4.2.98,5.84.06.4-.22.71-.49.92-.76l1.04-1.38-9.66.03Z"/>
            <path class="cls-9" d="M49.39,34.91l-10.55.03.03,38.43c0,.76.49,1.52,1.47,2.11,2.02,1.21,5.36,1.25,7.46.08,1.08-.6,1.63-1.41,1.62-2.21l-.03-38.43Z"/>
            <path class="cls-10" d="M45.33,24c-.13-.08-.42-.22-.63-.3-.54-.19-1.03-.16-1.73.23-3.26,1.83-4.05,7-4.13,11.01,0,.76.49,1.52,1.47,2.11,2.02,1.21,5.36,1.25,7.46.08,1.08-.6,1.63-1.41,1.62-2.21-.04-5.36-1.48-9.23-4.06-10.91Z"/>
            <g>
              <polygon class="cls-11" points="51.54 72.1 52.51 71.54 54.61 81.46 53.63 82.03 51.54 72.1"/>
              <polygon class="cls-2" points="46.84 62.41 47.81 61.85 52.51 71.54 51.54 72.1 46.84 62.41"/>
              <polygon class="cls-14" points="51.54 72.1 53.63 82.03 50.84 80.41 50.12 77.35 46.84 75.46 46.84 62.41 51.54 72.1"/>
            </g>
            <g>
              <polygon class="cls-14" points="36.73 72.1 35.76 71.54 33.66 81.46 34.63 82.03 36.73 72.1"/>
              <polygon class="cls-17" points="41.43 62.41 40.46 61.85 35.76 71.54 36.73 72.1 41.43 62.41"/>
              <polygon class="cls-11" points="36.73 72.1 34.63 82.03 37.42 80.41 38.15 77.35 41.43 75.46 41.43 62.41 36.73 72.1"/>
            </g>
            <path class="cls-16" d="M46.16,25.22c1.49,1.73,2.19,4.04,1.65,6.25-.53,2.18-1.84,2.83-2.87-3.68-.6-3.79-.19-4.2,1.22-2.57Z"/>
            <path class="cls-15" d="M39.67,30.97c-.12,1.89.54,2.19,2.39-4.01,1.49-5-2.18.69-2.39,4.01Z"/>
            <path class="cls-19" d="M47.8,60.38c-.28.15-.57.28-.88.4v-19.58c.31-.11.61-.24.88-.4,1.08-.6,1.6-1.41,1.6-2.21v-.22c0,.8-.52,1.61-1.6,2.21-2.1,1.17-5.44,1.14-7.46-.08-.98-.59-1.49-1.35-1.49-2.11v.23c0,.76.51,1.52,1.49,2.11,1.7,1.02,4.35,1.21,6.39.53v19.58c-2.05.67-4.69.49-6.39-.53-.98-.59-1.49-1.35-1.49-2.11v.23c0,.76.51,1.52,1.49,2.11,2.02,1.21,5.36,1.25,7.46.08,1.08-.6,1.6-1.41,1.6-2.21v-.22c0,.8-.52,1.61-1.6,2.21Z"/>
            <g>
              <path class="cls-20" d="M43.32,44.25v-.06s.03-.06.08-.06h.31c.05,0,.08.02.08.06,0,.09.02.14.06.17.04.03.1.04.2.04h.17c.1,0,.16-.01.2-.04.04-.03.06-.08.06-.16,0-.09-.03-.13-.09-.16-.06-.03-.13-.05-.21-.05-.09,0-.18-.02-.28-.03-.1-.02-.19-.04-.28-.06-.09-.02-.16-.07-.21-.15s-.09-.17-.09-.28v-.1c0-.14.05-.26.16-.34.11-.08.26-.12.45-.12h.37c.19,0,.34.04.45.12.11.08.16.19.16.34v.05s-.03.06-.08.06h-.31c-.05,0-.08-.02-.08-.06,0-.09-.02-.14-.05-.16-.04-.03-.1-.04-.2-.04h-.14c-.1,0-.17.01-.2.04-.04.03-.05.08-.05.17v.05c0,.09.1.14.3.15.21.01.39.04.55.09.09.03.16.08.21.15s.09.16.09.27v.09c0,.14-.05.26-.16.34-.11.08-.26.12-.45.12h-.4c-.19,0-.34-.04-.45-.12-.11-.08-.16-.19-.16-.34Z"/>
              <path class="cls-20" d="M44.54,45.41h.31c.05,0,.08.02.08.06v1.28c0,.14-.05.26-.16.33-.11.08-.25.12-.44.12h-.4c-.19,0-.34-.04-.45-.12-.1-.08-.16-.19-.16-.34v-1.27s.03-.06.08-.06h.31c.05,0,.08.02.08.06v1.26c0,.06.02.1.05.13.03.02.09.04.16.04h.25c.08,0,.13-.01.17-.04.03-.02.05-.07.05-.13v-1.26s.03-.06.08-.06Z"/>
              <path class="cls-20" d="M44.34,49.7h-.4c-.19,0-.34-.04-.45-.12-.1-.08-.16-.19-.16-.34v-.88c0-.15.05-.26.16-.34.1-.08.25-.12.45-.12h.4c.19,0,.34.04.44.12.11.08.16.19.16.33v.13s-.03.06-.08.06h-.31c-.05,0-.08-.02-.08-.06v-.11c0-.06-.02-.1-.05-.13-.03-.02-.09-.04-.17-.04h-.25c-.08,0-.13.01-.16.04-.03.03-.05.07-.05.13v.85c0,.06.02.1.05.13.03.02.09.04.16.04h.25c.08,0,.13-.01.17-.04.03-.02.05-.07.05-.13v-.11s.03-.06.08-.06h.31c.05,0,.08.02.08.06v.13c0,.14-.05.26-.16.33-.11.08-.25.12-.44.12Z"/>
              <path class="cls-20" d="M44.34,52.19h-.4c-.19,0-.34-.04-.45-.12-.1-.08-.16-.19-.16-.34v-.88c0-.15.05-.26.16-.34.1-.08.25-.12.45-.12h.4c.19,0,.34.04.44.12.11.08.16.19.16.33v.13s-.03.06-.08.06h-.31c-.05,0-.08-.02-.08-.06v-.11c0-.06-.02-.1-.05-.13-.03-.02-.09-.04-.17-.04h-.25c-.08,0-.13.01-.16.04-.03.02-.05.07-.05.13v.85c0,.06.02.1.05.13.03.02.09.04.16.04h.25c.08,0,.13-.01.17-.04.03-.03.05-.07.05-.13v-.11s.03-.06.08-.06h.31c.05,0,.08.02.08.06v.13c0,.14-.05.26-.16.33-.11.08-.25.12-.44.12Z"/>
              <path class="cls-20" d="M44.76,54.69h-1.2c-.05,0-.08-.02-.08-.06v-1.67s.03-.06.08-.06h1.2s.07.02.07.06v.19s-.02.06-.07.06h-.77s-.04.01-.04.03v.36s.01.03.04.03h.63c.05,0,.08.02.08.06v.19s-.03.06-.08.06h-.63s-.04.01-.04.03v.39s.01.03.04.03h.77s.07.02.07.06v.19s-.02.06-.07.06Z"/>
              <path class="cls-20" d="M43.32,56.73v-.06s.03-.06.08-.06h.31c.05,0,.08.02.08.06,0,.09.02.14.06.17.04.03.1.04.2.04h.17c.1,0,.16-.01.2-.04.04-.03.06-.08.06-.16,0-.09-.03-.13-.09-.16-.06-.03-.13-.05-.21-.05-.09,0-.18-.02-.28-.03-.1-.02-.19-.04-.28-.06-.09-.03-.16-.07-.21-.15-.06-.07-.09-.17-.09-.28v-.1c0-.14.05-.26.16-.34.11-.08.26-.12.45-.12h.37c.19,0,.34.04.45.12.11.08.16.19.16.34v.05s-.03.06-.08.06h-.31c-.05,0-.08-.02-.08-.06,0-.09-.02-.14-.05-.16-.04-.03-.1-.04-.2-.04h-.14c-.1,0-.17.01-.2.04-.04.03-.05.08-.05.17v.05c0,.09.1.14.3.15.21.01.39.04.55.09.09.03.16.08.21.15s.09.16.09.27v.09c0,.14-.05.26-.16.34-.11.08-.26.12-.45.12h-.4c-.19,0-.34-.04-.45-.12-.11-.08-.16-.19-.16-.34Z"/>
              <path class="cls-20" d="M43.32,59.23v-.06s.03-.06.08-.06h.31c.05,0,.08.02.08.06,0,.09.02.14.06.17.04.03.1.04.2.04h.17c.1,0,.16-.01.2-.04.04-.03.06-.08.06-.16,0-.09-.03-.13-.09-.16-.06-.03-.13-.05-.21-.05-.09,0-.18-.02-.28-.03-.1-.02-.19-.04-.28-.06-.09-.02-.16-.07-.21-.15s-.09-.17-.09-.28v-.1c0-.14.05-.26.16-.34.11-.08.26-.12.45-.12h.37c.19,0,.34.04.45.12.11.08.16.19.16.34v.05s-.03.06-.08.06h-.31c-.05,0-.08-.02-.08-.06,0-.09-.02-.14-.05-.16-.04-.03-.1-.04-.2-.04h-.14c-.1,0-.17.01-.2.04-.04.03-.05.08-.05.17v.05c0,.09.1.14.3.15.21.01.39.04.55.09.09.03.16.08.21.15s.09.16.09.27v.09c0,.14-.05.26-.16.34-.11.08-.26.12-.45.12h-.4c-.19,0-.34-.04-.45-.12-.11-.08-.16-.19-.16-.34Z"/>
            </g>
          </g>
        </g>
        <circle class="cls-5" cx="45.75" cy="26.27" r="25.41"/>
        <circle class="cls-3" cx="51.87" cy="71.34" r="27.8" transform="translate(-35.25 57.57) rotate(-45)"/>
      </g>
    </g>
  </g>
</svg>